<svg width="78" height="37" viewBox="0 0 78 37" fill="none" xmlns="http://www.w3.org/2000/svg">
<g filter="url(#filter0_d)">
<path d="M19.184 1.8L28.184 27H24.656L22.532 21.024H11.372L9.248 27H5.72L14.72 1.8H19.184ZM16.916 5.364L12.524 17.784H21.38L16.988 5.364H16.916ZM46.3663 20.7H49.9663V24.768L45.7903 27.18H36.3223L32.1463 24.768V4.032L36.3223 1.62H45.7903L49.9663 4.032V8.1H46.3663V4.86H35.7463V23.94H46.3663V20.7ZM56.0877 13.68V4.032L60.2637 1.62H68.6517L72.8277 4.032V7.74H69.2277V4.86H59.6877V12.492H68.6517L72.8277 14.904V24.768L68.6517 27.18H59.9037L55.7277 24.768V21.06H59.3277V23.94H69.2277V16.092H60.2637L56.0877 13.68Z" fill="#454F59"/>
<path d="M19.184 1.8L20.1257 1.46366L19.8887 0.799998H19.184V1.8ZM28.184 27V28H29.603L29.1257 26.6637L28.184 27ZM24.656 27L23.7137 27.3349L23.9501 28H24.656V27ZM22.532 21.024L23.4743 20.6891L23.2379 20.024H22.532V21.024ZM11.372 21.024V20.024H10.6661L10.4297 20.6891L11.372 21.024ZM9.248 27V28H9.95386L10.1903 27.3349L9.248 27ZM5.72 27L4.77826 26.6637L4.301 28H5.72V27ZM14.72 1.8V0.799998H14.0153L13.7783 1.46366L14.72 1.8ZM16.916 5.364V4.364H16.2089L15.9732 5.03061L16.916 5.364ZM12.524 17.784L11.5812 17.4506L11.1097 18.784H12.524V17.784ZM21.38 17.784V18.784H22.7943L22.3228 17.4506L21.38 17.784ZM16.988 5.364L17.9308 5.03061L17.6951 4.364H16.988V5.364ZM18.2423 2.13633L27.2423 27.3363L29.1257 26.6637L20.1257 1.46366L18.2423 2.13633ZM28.184 26H24.656V28H28.184V26ZM25.5983 26.6651L23.4743 20.6891L21.5897 21.3589L23.7137 27.3349L25.5983 26.6651ZM22.532 20.024H11.372V22.024H22.532V20.024ZM10.4297 20.6891L8.30575 26.6651L10.1903 27.3349L12.3143 21.3589L10.4297 20.6891ZM9.248 26H5.72V28H9.248V26ZM6.66174 27.3363L15.6617 2.13633L13.7783 1.46366L4.77826 26.6637L6.66174 27.3363ZM14.72 2.8H19.184V0.799998H14.72V2.8ZM15.9732 5.03061L11.5812 17.4506L13.4668 18.1174L17.8588 5.69739L15.9732 5.03061ZM12.524 18.784H21.38V16.784H12.524V18.784ZM22.3228 17.4506L17.9308 5.03061L16.0452 5.69739L20.4372 18.1174L22.3228 17.4506ZM16.988 4.364H16.916V6.364H16.988V4.364ZM46.3663 20.7V19.7H45.3663V20.7H46.3663ZM49.9663 20.7H50.9663V19.7H49.9663V20.7ZM49.9663 24.768L50.4664 25.6339L50.9663 25.3452V24.768H49.9663ZM45.7903 27.18V28.18H46.0583L46.2904 28.0459L45.7903 27.18ZM36.3223 27.18L35.8221 28.0459L36.0542 28.18H36.3223V27.18ZM32.1463 24.768H31.1463V25.3452L31.6461 25.6339L32.1463 24.768ZM32.1463 4.032L31.6461 3.16606L31.1463 3.45477V4.032H32.1463ZM36.3223 1.62V0.619998H36.0542L35.8221 0.754062L36.3223 1.62ZM45.7903 1.62L46.2904 0.754062L46.0583 0.619998H45.7903V1.62ZM49.9663 4.032H50.9663V3.45477L50.4664 3.16606L49.9663 4.032ZM49.9663 8.1V9.1H50.9663V8.1H49.9663ZM46.3663 8.1H45.3663V9.1H46.3663V8.1ZM46.3663 4.86H47.3663V3.86H46.3663V4.86ZM35.7463 4.86V3.86H34.7463V4.86H35.7463ZM35.7463 23.94H34.7463V24.94H35.7463V23.94ZM46.3663 23.94V24.94H47.3663V23.94H46.3663ZM46.3663 21.7H49.9663V19.7H46.3663V21.7ZM48.9663 20.7V24.768H50.9663V20.7H48.9663ZM49.4661 23.9021L45.2901 26.3141L46.2904 28.0459L50.4664 25.6339L49.4661 23.9021ZM45.7903 26.18H36.3223V28.18H45.7903V26.18ZM36.8224 26.3141L32.6464 23.9021L31.6461 25.6339L35.8221 28.0459L36.8224 26.3141ZM33.1463 24.768V4.032H31.1463V24.768H33.1463ZM32.6464 4.89794L36.8224 2.48594L35.8221 0.754062L31.6461 3.16606L32.6464 4.89794ZM36.3223 2.62H45.7903V0.619998H36.3223V2.62ZM45.2901 2.48594L49.4661 4.89794L50.4664 3.16606L46.2904 0.754062L45.2901 2.48594ZM48.9663 4.032V8.1H50.9663V4.032H48.9663ZM49.9663 7.1H46.3663V9.1H49.9663V7.1ZM47.3663 8.1V4.86H45.3663V8.1H47.3663ZM46.3663 3.86H35.7463V5.86H46.3663V3.86ZM34.7463 4.86V23.94H36.7463V4.86H34.7463ZM35.7463 24.94H46.3663V22.94H35.7463V24.94ZM47.3663 23.94V20.7H45.3663V23.94H47.3663ZM56.0877 13.68H55.0877V14.2572L55.5875 14.5459L56.0877 13.68ZM56.0877 4.032L55.5875 3.16606L55.0877 3.45477V4.032H56.0877ZM60.2637 1.62V0.619998H59.9956L59.7635 0.754062L60.2637 1.62ZM68.6517 1.62L69.1518 0.754062L68.9197 0.619998H68.6517V1.62ZM72.8277 4.032H73.8277V3.45477L73.3278 3.16606L72.8277 4.032ZM72.8277 7.74V8.74H73.8277V7.74H72.8277ZM69.2277 7.74H68.2277V8.74H69.2277V7.74ZM69.2277 4.86H70.2277V3.86H69.2277V4.86ZM59.6877 4.86V3.86H58.6877V4.86H59.6877ZM59.6877 12.492H58.6877V13.492H59.6877V12.492ZM68.6517 12.492L69.1518 11.6261L68.9197 11.492H68.6517V12.492ZM72.8277 14.904H73.8277V14.3268L73.3278 14.0381L72.8277 14.904ZM72.8277 24.768L73.3278 25.6339L73.8277 25.3452V24.768H72.8277ZM68.6517 27.18V28.18H68.9197L69.1518 28.0459L68.6517 27.18ZM59.9037 27.18L59.4035 28.0459L59.6356 28.18H59.9037V27.18ZM55.7277 24.768H54.7277V25.3452L55.2275 25.6339L55.7277 24.768ZM55.7277 21.06V20.06H54.7277V21.06H55.7277ZM59.3277 21.06H60.3277V20.06H59.3277V21.06ZM59.3277 23.94H58.3277V24.94H59.3277V23.94ZM69.2277 23.94V24.94H70.2277V23.94H69.2277ZM69.2277 16.092H70.2277V15.092H69.2277V16.092ZM60.2637 16.092L59.7635 16.9579L59.9956 17.092H60.2637V16.092ZM57.0877 13.68V4.032H55.0877V13.68H57.0877ZM56.5878 4.89794L60.7638 2.48594L59.7635 0.754062L55.5875 3.16606L56.5878 4.89794ZM60.2637 2.62H68.6517V0.619998H60.2637V2.62ZM68.1515 2.48594L72.3275 4.89794L73.3278 3.16606L69.1518 0.754062L68.1515 2.48594ZM71.8277 4.032V7.74H73.8277V4.032H71.8277ZM72.8277 6.74H69.2277V8.74H72.8277V6.74ZM70.2277 7.74V4.86H68.2277V7.74H70.2277ZM69.2277 3.86H59.6877V5.86H69.2277V3.86ZM58.6877 4.86V12.492H60.6877V4.86H58.6877ZM59.6877 13.492H68.6517V11.492H59.6877V13.492ZM68.1515 13.3579L72.3275 15.7699L73.3278 14.0381L69.1518 11.6261L68.1515 13.3579ZM71.8277 14.904V24.768H73.8277V14.904H71.8277ZM72.3275 23.9021L68.1515 26.3141L69.1518 28.0459L73.3278 25.6339L72.3275 23.9021ZM68.6517 26.18H59.9037V28.18H68.6517V26.18ZM60.4038 26.3141L56.2278 23.9021L55.2275 25.6339L59.4035 28.0459L60.4038 26.3141ZM56.7277 24.768V21.06H54.7277V24.768H56.7277ZM55.7277 22.06H59.3277V20.06H55.7277V22.06ZM58.3277 21.06V23.94H60.3277V21.06H58.3277ZM59.3277 24.94H69.2277V22.94H59.3277V24.94ZM70.2277 23.94V16.092H68.2277V23.94H70.2277ZM69.2277 15.092H60.2637V17.092H69.2277V15.092ZM60.7638 15.2261L56.5878 12.8141L55.5875 14.5459L59.7635 16.9579L60.7638 15.2261Z" fill="#454F59"/>
</g>
<defs>
<filter id="filter0_d" x="0.300995" y="0.619999" width="77.5267" height="35.56" filterUnits="userSpaceOnUse" color-interpolation-filters="sRGB">
<feFlood flood-opacity="0" result="BackgroundImageFix"/>
<feColorMatrix in="SourceAlpha" type="matrix" values="0 0 0 0 0 0 0 0 0 0 0 0 0 0 0 0 0 0 127 0"/>
<feOffset dy="4"/>
<feGaussianBlur stdDeviation="2"/>
<feColorMatrix type="matrix" values="0 0 0 0 0 0 0 0 0 0 0 0 0 0 0 0 0 0 0.25 0"/>
<feBlend mode="normal" in2="BackgroundImageFix" result="effect1_dropShadow"/>
<feBlend mode="normal" in="SourceGraphic" in2="effect1_dropShadow" result="shape"/>
</filter>
</defs>
</svg>
