<svg width="234" height="151" viewBox="0 0 234 151" fill="#FF9899" xmlns="http://www.w3.org/2000/svg">
<path fill-rule="evenodd" clip-rule="evenodd" d="M61.7744 0.271138C30.2834 1.9452 4.30155 26.5633 0.575464 58.2582C0.0143632 63.0302 0.362432 89.312 1.0329 92.7989C6.57068 121.6 27.0699 141.86 55.783 146.91C58.4078 147.371 63.0745 147.448 94.9812 147.556L131.199 147.678V104.532C131.199 59.1475 131.17 58.1269 129.724 51.5819C122.734 19.9575 94.3687 -1.46189 61.7744 0.271138ZM74.6665 31.5988C90.9812 35.4577 102.608 48.7741 104.709 66.0083C104.794 66.7055 104.869 76.514 104.876 87.8053L104.887 108.335H109.96H115.031V114.835V121.334H103.619H92.207L92.1956 95.8902C92.1804 62.5223 92.1129 61.9411 87.4101 54.9101C73.8077 34.5693 40.4745 43.5522 39.5463 67.8079C39.4626 70.0004 39.998 69.8444 32.6096 69.8254L26.7456 69.8111L26.7066 67.7005C26.2901 44.8895 51.2895 26.0706 74.6665 31.5988ZM68.637 71.4347C77.7848 74.1389 79.5575 86.0456 71.5804 91.2029C64.6855 95.6601 55.5824 91.1791 54.8957 82.9895C54.2604 75.4049 61.492 69.3231 68.637 71.4347Z" />
<g filter="url(#filter0_d)">
<path d="M157.184 115.8L166.184 141H162.656L160.532 135.024H149.372L147.248 141H143.72L152.72 115.8H157.184ZM154.916 119.364L150.524 131.784H159.38L154.988 119.364H154.916ZM184.366 134.7H187.966V138.768L183.79 141.18H174.322L170.146 138.768V118.032L174.322 115.62H183.79L187.966 118.032V122.1H184.366V118.86H173.746V137.94H184.366V134.7ZM194.088 127.68V118.032L198.264 115.62H206.652L210.828 118.032V121.74H207.228V118.86H197.688V126.492H206.652L210.828 128.904V138.768L206.652 141.18H197.904L193.728 138.768V135.06H197.328V137.94H207.228V130.092H198.264L194.088 127.68Z" />
<path d="M157.184 115.8L158.126 115.464L157.889 114.8H157.184V115.8ZM166.184 141V142H167.603L167.126 140.664L166.184 141ZM162.656 141L161.714 141.335L161.95 142H162.656V141ZM160.532 135.024L161.474 134.689L161.238 134.024H160.532V135.024ZM149.372 135.024V134.024H148.666L148.43 134.689L149.372 135.024ZM147.248 141V142H147.954L148.19 141.335L147.248 141ZM143.72 141L142.778 140.664L142.301 142H143.72V141ZM152.72 115.8V114.8H152.015L151.778 115.464L152.72 115.8ZM154.916 119.364V118.364H154.209L153.973 119.031L154.916 119.364ZM150.524 131.784L149.581 131.451L149.11 132.784H150.524V131.784ZM159.38 131.784V132.784H160.794L160.323 131.451L159.38 131.784ZM154.988 119.364L155.931 119.031L155.695 118.364H154.988V119.364ZM156.242 116.136L165.242 141.336L167.126 140.664L158.126 115.464L156.242 116.136ZM166.184 140H162.656V142H166.184V140ZM163.598 140.665L161.474 134.689L159.59 135.359L161.714 141.335L163.598 140.665ZM160.532 134.024H149.372V136.024H160.532V134.024ZM148.43 134.689L146.306 140.665L148.19 141.335L150.314 135.359L148.43 134.689ZM147.248 140H143.72V142H147.248V140ZM144.662 141.336L153.662 116.136L151.778 115.464L142.778 140.664L144.662 141.336ZM152.72 116.8H157.184V114.8H152.72V116.8ZM153.973 119.031L149.581 131.451L151.467 132.117L155.859 119.697L153.973 119.031ZM150.524 132.784H159.38V130.784H150.524V132.784ZM160.323 131.451L155.931 119.031L154.045 119.697L158.437 132.117L160.323 131.451ZM154.988 118.364H154.916V120.364H154.988V118.364ZM184.366 134.7V133.7H183.366V134.7H184.366ZM187.966 134.7H188.966V133.7H187.966V134.7ZM187.966 138.768L188.466 139.634L188.966 139.345V138.768H187.966ZM183.79 141.18V142.18H184.058L184.29 142.046L183.79 141.18ZM174.322 141.18L173.822 142.046L174.054 142.18H174.322V141.18ZM170.146 138.768H169.146V139.345L169.646 139.634L170.146 138.768ZM170.146 118.032L169.646 117.166L169.146 117.455V118.032H170.146ZM174.322 115.62V114.62H174.054L173.822 114.754L174.322 115.62ZM183.79 115.62L184.29 114.754L184.058 114.62H183.79V115.62ZM187.966 118.032H188.966V117.455L188.466 117.166L187.966 118.032ZM187.966 122.1V123.1H188.966V122.1H187.966ZM184.366 122.1H183.366V123.1H184.366V122.1ZM184.366 118.86H185.366V117.86H184.366V118.86ZM173.746 118.86V117.86H172.746V118.86H173.746ZM173.746 137.94H172.746V138.94H173.746V137.94ZM184.366 137.94V138.94H185.366V137.94H184.366ZM184.366 135.7H187.966V133.7H184.366V135.7ZM186.966 134.7V138.768H188.966V134.7H186.966ZM187.466 137.902L183.29 140.314L184.29 142.046L188.466 139.634L187.466 137.902ZM183.79 140.18H174.322V142.18H183.79V140.18ZM174.822 140.314L170.646 137.902L169.646 139.634L173.822 142.046L174.822 140.314ZM171.146 138.768V118.032H169.146V138.768H171.146ZM170.646 118.898L174.822 116.486L173.822 114.754L169.646 117.166L170.646 118.898ZM174.322 116.62H183.79V114.62H174.322V116.62ZM183.29 116.486L187.466 118.898L188.466 117.166L184.29 114.754L183.29 116.486ZM186.966 118.032V122.1H188.966V118.032H186.966ZM187.966 121.1H184.366V123.1H187.966V121.1ZM185.366 122.1V118.86H183.366V122.1H185.366ZM184.366 117.86H173.746V119.86H184.366V117.86ZM172.746 118.86V137.94H174.746V118.86H172.746ZM173.746 138.94H184.366V136.94H173.746V138.94ZM185.366 137.94V134.7H183.366V137.94H185.366ZM194.088 127.68H193.088V128.257L193.588 128.546L194.088 127.68ZM194.088 118.032L193.588 117.166L193.088 117.455V118.032H194.088ZM198.264 115.62V114.62H197.996L197.764 114.754L198.264 115.62ZM206.652 115.62L207.152 114.754L206.92 114.62H206.652V115.62ZM210.828 118.032H211.828V117.455L211.328 117.166L210.828 118.032ZM210.828 121.74V122.74H211.828V121.74H210.828ZM207.228 121.74H206.228V122.74H207.228V121.74ZM207.228 118.86H208.228V117.86H207.228V118.86ZM197.688 118.86V117.86H196.688V118.86H197.688ZM197.688 126.492H196.688V127.492H197.688V126.492ZM206.652 126.492L207.152 125.626L206.92 125.492H206.652V126.492ZM210.828 128.904H211.828V128.327L211.328 128.038L210.828 128.904ZM210.828 138.768L211.328 139.634L211.828 139.345V138.768H210.828ZM206.652 141.18V142.18H206.92L207.152 142.046L206.652 141.18ZM197.904 141.18L197.404 142.046L197.636 142.18H197.904V141.18ZM193.728 138.768H192.728V139.345L193.228 139.634L193.728 138.768ZM193.728 135.06V134.06H192.728V135.06H193.728ZM197.328 135.06H198.328V134.06H197.328V135.06ZM197.328 137.94H196.328V138.94H197.328V137.94ZM207.228 137.94V138.94H208.228V137.94H207.228ZM207.228 130.092H208.228V129.092H207.228V130.092ZM198.264 130.092L197.764 130.958L197.996 131.092H198.264V130.092ZM195.088 127.68V118.032H193.088V127.68H195.088ZM194.588 118.898L198.764 116.486L197.764 114.754L193.588 117.166L194.588 118.898ZM198.264 116.62H206.652V114.62H198.264V116.62ZM206.152 116.486L210.328 118.898L211.328 117.166L207.152 114.754L206.152 116.486ZM209.828 118.032V121.74H211.828V118.032H209.828ZM210.828 120.74H207.228V122.74H210.828V120.74ZM208.228 121.74V118.86H206.228V121.74H208.228ZM207.228 117.86H197.688V119.86H207.228V117.86ZM196.688 118.86V126.492H198.688V118.86H196.688ZM197.688 127.492H206.652V125.492H197.688V127.492ZM206.152 127.358L210.328 129.77L211.328 128.038L207.152 125.626L206.152 127.358ZM209.828 128.904V138.768H211.828V128.904H209.828ZM210.328 137.902L206.152 140.314L207.152 142.046L211.328 139.634L210.328 137.902ZM206.652 140.18H197.904V142.18H206.652V140.18ZM198.404 140.314L194.228 137.902L193.228 139.634L197.404 142.046L198.404 140.314ZM194.728 138.768V135.06H192.728V138.768H194.728ZM193.728 136.06H197.328V134.06H193.728V136.06ZM196.328 135.06V137.94H198.328V135.06H196.328ZM197.328 138.94H207.228V136.94H197.328V138.94ZM208.228 137.94V130.092H206.228V137.94H208.228ZM207.228 129.092H198.264V131.092H207.228V129.092ZM198.764 129.226L194.588 126.814L193.588 128.546L197.764 130.958L198.764 129.226Z" />
</g>
<defs>
<filter id="filter0_d" x="138.301" y="114.62" width="77.5267" height="35.56" filterUnits="userSpaceOnUse" color-interpolation-filters="sRGB">
<feFlood flood-opacity="0" result="BackgroundImageFix"/>
<feColorMatrix in="SourceAlpha" type="matrix" values="0 0 0 0 0 0 0 0 0 0 0 0 0 0 0 0 0 0 127 0"/>
<feOffset dy="4"/>
<feGaussianBlur stdDeviation="2"/>
<feColorMatrix type="matrix" values="0 0 0 0 0 0 0 0 0 0 0 0 0 0 0 0 0 0 0.25 0"/>
<feBlend mode="normal" in2="BackgroundImageFix" result="effect1_dropShadow"/>
<feBlend mode="normal" in="SourceGraphic" in2="effect1_dropShadow" result="shape"/>
</filter>
</defs>
</svg>
